<?xml version="1.0" encoding="utf-8"?>
<!-- Generator: Adobe Illustrator 23.1.0, SVG Export Plug-In . SVG Version: 6.00 Build 0)  -->
<svg version="1.1" id="high_x5F_availability" xmlns="http://www.w3.org/2000/svg" xmlns:xlink="http://www.w3.org/1999/xlink"
	 x="0px" y="0px" viewBox="0 0 373.1 312" style="enable-background:new 0 0 373.1 312;" xml:space="preserve">
<style type="text/css">
	.st0{fill:#EFF0F2;}
	.st1{fill:none;stroke:#787879;stroke-width:4;stroke-linecap:round;stroke-linejoin:round;}
</style>
<circle id="Ellipse_1_copy" class="st0" cx="186.6" cy="156" r="156"/>
<path id="Rounded_Rectangle_1" class="st1" d="M83.8,69.7v-3.9c0-6,4.9-10.9,10.9-10.9c0,0,0,0,0,0h160c6,0,10.9,4.9,10.9,10.9
	c0,0,0,0,0,0v145.5c0,6-4.9,10.9-10.9,10.9h-70.5 M123.2,222.2H94.7c-6,0-10.9-4.9-10.9-10.9v-4.8"/>
<path id="Rounded_Rectangle_1_copy" class="st1" d="M265.6,89h63c6.9,0,8.1,5.7,42.6,72.1v50.2c0,6-4.9,10.9-10.9,10.9H338
	 M277.4,222.2h-77.2"/>
<path class="st1" d="M371.1,161.1h-68.7v-44.4"/>
<path class="st1" d="M143.5,92H65.3"/>
<path id="Shape_2_copy" class="st1" d="M40.6,92h-12"/>
<path id="Shape_2_copy_2" class="st1" d="M108.6,123.6h-80"/>
<path id="Shape_2_copy_3" class="st1" d="M32.2,153.4H2"/>
<path id="Shape_2_copy_4" class="st1" d="M131.8,153.4H50.4"/>
<path id="Shape_2_copy_5" class="st1" d="M104.9,184.7H23.5"/>
<ellipse transform="matrix(9.853765e-02 -0.9951 0.9951 9.853765e-02 -86.5738 357.1503)" class="st1" cx="153.8" cy="226.4" rx="30.7" ry="30.7"/>
<path id="Ellipse_1_copy-2" class="st1" d="M307.7,195.6c17,0,30.7,13.7,30.7,30.7c0,17-13.7,30.7-30.7,30.7
	c-17,0-30.7-13.7-30.7-30.7c0,0,0,0,0,0C276.9,209.4,290.7,195.6,307.7,195.6C307.7,195.6,307.7,195.6,307.7,195.6z"/>
</svg>
