<?xml version="1.0" encoding="utf-8"?>
<!-- Generator: Adobe Illustrator 23.1.0, SVG Export Plug-In . SVG Version: 6.00 Build 0)  -->
<svg version="1.1" id="our_x5F_reach" xmlns="http://www.w3.org/2000/svg" xmlns:xlink="http://www.w3.org/1999/xlink" x="0px"
	 y="0px" viewBox="0 0 312 312" style="enable-background:new 0 0 312 312;" xml:space="preserve">
<style type="text/css">
	.st0{fill:#EFF0F2;}
	.st1{fill:none;stroke:#787879;stroke-width:4;stroke-linecap:round;stroke-linejoin:round;}
</style>
<circle class="st0" cx="156" cy="156" r="156"/>
<path id="Rounded_Rectangle_2" class="st1" d="M49,78h215c11,0,20,9,20,20v160c0,11-9,20-20,20H49c-11,0-20-9-20-20V98
	C29,87,38,78,49,78z"/>
<circle class="st1" cx="156" cy="175" r="72.5"/>
<path id="Rounded_Rectangle_2_copy" class="st1" d="M134.8,123.2h42.4c1.7,0,3,1.3,3,3v97.6c0,1.7-1.3,3-3,3h-42.4c-1.7,0-3-1.3-3-3
	v-97.6C131.8,124.5,133.2,123.2,134.8,123.2z M107.2,150.8h97.6c1.7,0,3,1.3,3,3v42.4c0,1.7-1.3,3-3,3h-97.6c-1.7,0-3-1.3-3-3v-42.4
	C104.2,152.2,105.5,150.8,107.2,150.8L107.2,150.8z"/>
<path class="st1" d="M107.6,78.3V50.7c0,0,24.2-17.3,48.4-17.3c24.2,0,48.4,17.3,48.4,17.3v27.6"/>
</svg>
