<?xml version="1.0" encoding="utf-8"?>
<!-- Generator: Adobe Illustrator 23.1.0, SVG Export Plug-In . SVG Version: 6.00 Build 0)  -->
<svg version="1.1" id="our_x5F_support" xmlns="http://www.w3.org/2000/svg" xmlns:xlink="http://www.w3.org/1999/xlink" x="0px"
	 y="0px" viewBox="0 0 312 312" style="enable-background:new 0 0 312 312;" xml:space="preserve">
<style type="text/css">
	.st0{fill:#EFF0F2;}
	.st1{fill:none;stroke:#787879;stroke-width:4;stroke-linecap:round;stroke-linejoin:round;}
</style>
<circle id="Ellipse_1_copy" class="st0" cx="156" cy="156" r="156"/>
<path class="st1" d="M248.8,52H63.2C43.7,52,28,67.8,28,87.3v113.8c0,19.4,15.7,35.2,35.1,35.3V288l74.1-51.6h111.7
	c19.5,0,35.2-15.8,35.2-35.3V87.3C284,67.8,268.3,52,248.8,52z"/>
<path id="Rounded_Rectangle_3" class="st1" d="M155.8,184.4c-5.4,5.5-8.8,8.8-8.8,8.8c-13.2,13.3-33.3,14.6-44.9,2.9
	s-10.3-31.9,2.9-45.1l55.6-55.9c13.2-13.3,33.3-14.6,44.9-2.9s10.3,31.9-2.9,45.1c0,0-3,3-8.1,8.2"/>
<path class="st1" d="M132.6,123.2c0,0,18,17.2,30.6,29.4"/>
<circle class="st1" cx="184.5" cy="174.4" r="30.2"/>
<path class="st1" d="M184.3,144v60.7"/>
</svg>
